<?xml version="1.0" encoding="utf-8"?>
<!-- Generator: Adobe Illustrator 28.3.0, SVG Export Plug-In . SVG Version: 6.00 Build 0)  -->
<svg version="1.1" id="Layer_1" xmlns="http://www.w3.org/2000/svg" xmlns:xlink="http://www.w3.org/1999/xlink" x="0px" y="0px"
	 viewBox="0 0 450 88" style="enable-background:new 0 0 450 88;" xml:space="preserve">
<style type="text/css">
	.st0{fill:#636363;}
</style>
<g>
	<path class="st0" d="M106.2,50.2l-13-45.6h10.5l7.5,31.7h0.4l8.3-31.7h9l8.3,31.7h0.4l7.5-31.7h10.5l-13,45.6h-9.4l-8.7-29.8h-0.4
		l-8.7,29.8H106.2z"/>
	<path class="st0" d="M166.4,18.3v31.9h-6.7V18.3H166.4z"/>
	<path class="st0" d="M172,50.2V18.3h6.7v14.1h0.4l11.5-14.1h8.1l-11.8,14.3l12,17.6h-8.1L182,37l-3.3,4v9.1H172z"/>
	<path class="st0" d="M208.9,18.3v31.9h-6.7V18.3H208.9z"/>
	<path class="st0" d="M214.5,50.2V18.3h12.6c2.4,0,4.5,0.5,6.2,1.4s3,2.2,3.9,3.8c0.9,1.6,1.3,3.5,1.3,5.6c0,2.1-0.5,4-1.4,5.6
		c-0.9,1.6-2.2,2.9-4,3.8c-1.7,0.9-3.8,1.4-6.3,1.4h-8v-5.4h6.9c1.3,0,2.4-0.2,3.2-0.7c0.8-0.5,1.5-1.1,1.9-1.9
		c0.4-0.8,0.6-1.7,0.6-2.8c0-1.1-0.2-2-0.6-2.8s-1.1-1.4-1.9-1.9c-0.9-0.4-1.9-0.7-3.2-0.7h-4.5v26.4H214.5z"/>
	<path class="st0" d="M242.9,50.2V18.3h21.5v5.6h-14.7v7.6h13.6V37h-13.6v7.6h14.8v5.6H242.9z M251.3,15.2l3.3-7.1h6.1l-4.7,7.1
		H251.3z"/>
	<path class="st0" d="M281,50.2h-11.3V18.3h11.4c3.2,0,6,0.6,8.3,1.9c2.3,1.3,4.1,3.1,5.3,5.5c1.3,2.4,1.9,5.2,1.9,8.5
		c0,3.3-0.6,6.2-1.9,8.6c-1.3,2.4-3,4.2-5.4,5.5C287.1,49.5,284.3,50.2,281,50.2z M276.5,44.4h4.3c2,0,3.7-0.4,5-1.1
		c1.4-0.7,2.4-1.8,3.1-3.3s1-3.4,1-5.8c0-2.4-0.3-4.3-1-5.8c-0.7-1.5-1.7-2.6-3.1-3.3c-1.4-0.7-3-1.1-5-1.1h-4.3V44.4z"/>
	<path class="st0" d="M308.4,18.3v31.9h-6.7V18.3H308.4z"/>
	<path class="st0" d="M323,50.2h-10.3l15.7-45.6h12.4l15.7,45.6h-10.3L334.8,15h-0.4L323,50.2z M322.3,32.3h24.4v7.5h-24.4V32.3z"/>
</g>
<g>
	<path class="st0" d="M105.4,80.1h-0.7l7.3-20.4h0.9l7.3,20.4h-0.7l-7-19.6h-0.1L105.4,80.1z M107.7,72.6h9.5v0.6h-9.5V72.6z"/>
	<path class="st0" d="M137.4,80.4c-1.3,0-2.5-0.3-3.5-1c-1-0.7-1.8-1.6-2.3-2.8c-0.6-1.2-0.8-2.5-0.8-4s0.3-2.8,0.8-4
		c0.6-1.2,1.3-2.1,2.3-2.8c1-0.7,2-1,3.2-1c0.9,0,1.7,0.2,2.5,0.6c0.8,0.4,1.4,0.9,2,1.6c0.6,0.7,1,1.4,1.3,2.3
		c0.3,0.9,0.5,1.8,0.5,2.8v0.6h-12.2v-0.6h11.6c0-1.2-0.3-2.3-0.8-3.3c-0.5-1-1.2-1.8-2-2.4s-1.8-0.9-2.8-0.9c-1,0-2,0.3-2.8,0.9
		c-0.8,0.6-1.5,1.5-2,2.5c-0.5,1.1-0.8,2.3-0.8,3.6v0.1c0,1.3,0.2,2.6,0.7,3.7s1.1,2,2,2.7s2,1,3.3,1c0.9,0,1.7-0.2,2.4-0.5
		c0.6-0.3,1.2-0.7,1.5-1.1c0.4-0.4,0.7-0.8,0.9-1.1l0.5,0.4c-0.2,0.4-0.6,0.8-1,1.3c-0.5,0.5-1,0.9-1.7,1.2
		C139.2,80.2,138.4,80.4,137.4,80.4z"/>
	<path class="st0" d="M148.4,69.8v10.3h-0.6V64.8h0.6v2.4h0.1c0.4-0.8,0.9-1.4,1.8-1.9c0.8-0.5,1.8-0.7,2.8-0.7c1,0,1.9,0.2,2.7,0.7
		c0.8,0.4,1.4,1.1,1.8,1.8c0.4,0.8,0.7,1.7,0.7,2.7v10.3h-0.6V69.8c0-1.4-0.4-2.5-1.3-3.3s-1.9-1.3-3.3-1.3c-0.9,0-1.7,0.2-2.4,0.6
		c-0.7,0.4-1.2,0.9-1.7,1.6S148.4,68.9,148.4,69.8z"/>
	<path class="st0" d="M169.2,80.4c-1.2,0-2.3-0.3-3.3-1s-1.7-1.6-2.3-2.8c-0.6-1.2-0.8-2.5-0.8-4c0-1.5,0.3-2.8,0.8-4
		c0.5-1.2,1.3-2.1,2.3-2.8c1-0.7,2.1-1,3.3-1c0.9,0,1.8,0.2,2.5,0.6s1.4,0.9,1.9,1.7s0.9,1.5,1,2.5H174c-0.2-1.2-0.8-2.2-1.6-2.9
		c-0.9-0.8-1.9-1.1-3.1-1.1c-1.1,0-2.1,0.3-2.9,0.9c-0.9,0.6-1.6,1.5-2.1,2.6c-0.5,1.1-0.8,2.3-0.8,3.7c0,1.4,0.2,2.6,0.7,3.7
		c0.5,1.1,1.2,2,2,2.6c0.9,0.7,1.9,1,3,1c0.8,0,1.6-0.2,2.2-0.5c0.7-0.3,1.3-0.8,1.7-1.4s0.7-1.3,0.9-2.2h0.7c-0.1,1-0.5,1.8-1,2.5
		c-0.5,0.7-1.2,1.3-1.9,1.7S170.1,80.4,169.2,80.4z"/>
	<path class="st0" d="M179.6,62c-0.2,0-0.3-0.1-0.4-0.2c-0.1-0.1-0.2-0.3-0.2-0.4c0-0.2,0.1-0.3,0.2-0.4s0.3-0.2,0.4-0.2
		s0.3,0.1,0.4,0.2s0.2,0.3,0.2,0.4c0,0.2-0.1,0.3-0.2,0.4C179.9,61.9,179.8,62,179.6,62z M179.3,80.1V64.8h0.6v15.3H179.3z"/>
	<path class="st0" d="M190.9,80.4c-1.2,0-2.3-0.3-3.3-1s-1.7-1.6-2.3-2.8c-0.6-1.2-0.8-2.5-0.8-4c0-1.5,0.3-2.8,0.8-4
		c0.5-1.2,1.3-2.1,2.3-2.8c1-0.7,2.1-1,3.3-1c0.9,0,1.8,0.2,2.5,0.6s1.4,0.9,1.9,1.7s0.9,1.5,1,2.5h-0.7c-0.2-1.2-0.8-2.2-1.6-2.9
		c-0.9-0.8-1.9-1.1-3.1-1.1c-1.1,0-2.1,0.3-2.9,0.9c-0.9,0.6-1.6,1.5-2.1,2.6c-0.5,1.1-0.8,2.3-0.8,3.7c0,1.4,0.2,2.6,0.7,3.7
		c0.5,1.1,1.2,2,2,2.6c0.9,0.7,1.9,1,3,1c0.8,0,1.6-0.2,2.2-0.5c0.7-0.3,1.3-0.8,1.7-1.4s0.7-1.3,0.9-2.2h0.7c-0.1,1-0.5,1.8-1,2.5
		c-0.5,0.7-1.2,1.3-1.9,1.7S191.8,80.4,190.9,80.4z"/>
	<path class="st0" d="M201.5,59.7v20.4h-0.6V59.7H201.5z"/>
	<path class="st0" d="M212.3,80.4c-1.2,0-2.3-0.3-3.2-1c-1-0.7-1.7-1.6-2.3-2.8c-0.6-1.2-0.8-2.5-0.8-4c0-1.5,0.3-2.9,0.8-4
		c0.6-1.2,1.3-2.1,2.3-2.8c1-0.7,2-1,3.2-1c1.2,0,2.3,0.3,3.2,1c1,0.7,1.7,1.6,2.3,2.8c0.6,1.2,0.8,2.5,0.8,4s-0.3,2.8-0.8,4
		c-0.6,1.2-1.3,2.1-2.3,2.8S213.5,80.4,212.3,80.4z M212.3,79.8c1.1,0,2-0.3,2.9-1c0.9-0.6,1.5-1.5,2-2.6c0.5-1.1,0.7-2.3,0.7-3.7
		s-0.3-2.6-0.8-3.7c-0.5-1.1-1.2-2-2-2.6s-1.8-1-2.9-1c-1.1,0-2,0.3-2.9,1c-0.9,0.6-1.5,1.5-2,2.6c-0.5,1.1-0.8,2.3-0.8,3.7
		s0.2,2.6,0.7,3.7s1.2,2,2,2.6C210.3,79.4,211.2,79.8,212.3,79.8z"/>
	<path class="st0" d="M223.1,85.8v-21h0.6v3.9h0.1c0.3-0.8,0.7-1.6,1.2-2.2c0.5-0.6,1.1-1.1,1.8-1.4c0.7-0.3,1.4-0.5,2.2-0.5
		c1.2,0,2.2,0.3,3.1,1c0.9,0.7,1.6,1.6,2,2.8s0.7,2.5,0.7,4c0,1.5-0.2,2.8-0.7,4s-1.2,2.1-2,2.8c-0.9,0.7-1.9,1-3.1,1
		c-0.8,0-1.6-0.2-2.2-0.5c-0.7-0.3-1.3-0.8-1.8-1.4c-0.5-0.6-0.9-1.4-1.2-2.2h-0.1v9.5H223.1z M223.8,72.5c0,1.4,0.2,2.6,0.6,3.7
		c0.4,1.1,1,2,1.8,2.6s1.7,1,2.8,1s2-0.3,2.8-1s1.4-1.5,1.8-2.6c0.4-1.1,0.6-2.3,0.6-3.7s-0.2-2.6-0.6-3.7c-0.4-1.1-1-2-1.8-2.6
		c-0.8-0.6-1.7-1-2.8-1s-2,0.3-2.8,1s-1.4,1.5-1.8,2.6C224,69.9,223.8,71.1,223.8,72.5z"/>
	<path class="st0" d="M245.1,80.4c-1.3,0-2.5-0.3-3.5-1c-1-0.7-1.8-1.6-2.3-2.8c-0.6-1.2-0.8-2.5-0.8-4s0.3-2.8,0.8-4
		c0.6-1.2,1.3-2.1,2.3-2.8c1-0.7,2-1,3.2-1c0.9,0,1.7,0.2,2.5,0.6c0.8,0.4,1.4,0.9,2,1.6c0.6,0.7,1,1.4,1.3,2.3
		c0.3,0.9,0.5,1.8,0.5,2.8v0.6h-12.2v-0.6h11.6c0-1.2-0.3-2.3-0.8-3.3c-0.5-1-1.2-1.8-2-2.4s-1.8-0.9-2.8-0.9c-1,0-2,0.3-2.8,0.9
		c-0.8,0.6-1.5,1.5-2,2.5c-0.5,1.1-0.8,2.3-0.8,3.6v0.1c0,1.3,0.2,2.6,0.7,3.7s1.1,2,2,2.7s2,1,3.3,1c0.9,0,1.7-0.2,2.4-0.5
		c0.6-0.3,1.2-0.7,1.5-1.1c0.4-0.4,0.7-0.8,0.9-1.1l0.5,0.4c-0.2,0.4-0.6,0.8-1,1.3c-0.5,0.5-1,0.9-1.7,1.2
		C247,80.2,246.1,80.4,245.1,80.4z M244.4,62.6l2.8-4.3h0.8l-2.9,4.3H244.4z"/>
	<path class="st0" d="M260.5,80.4c-1.2,0-2.3-0.3-3.1-1s-1.6-1.6-2-2.8c-0.5-1.2-0.7-2.5-0.7-4c0-1.5,0.2-2.8,0.7-4s1.2-2.1,2-2.8
		c0.9-0.7,1.9-1,3.1-1c0.8,0,1.6,0.2,2.2,0.5c0.7,0.3,1.3,0.8,1.8,1.4c0.5,0.6,0.9,1.4,1.2,2.2h0.1v-9h0.6v20.4h-0.6v-3.8h-0.1
		c-0.3,0.8-0.7,1.6-1.2,2.2c-0.5,0.6-1.1,1.1-1.8,1.4C262.1,80.2,261.3,80.4,260.5,80.4z M260.5,79.8c1.1,0,2-0.3,2.8-1
		s1.4-1.5,1.8-2.6c0.4-1.1,0.6-2.3,0.6-3.7s-0.2-2.6-0.6-3.7c-0.4-1.1-1-2-1.8-2.6c-0.8-0.6-1.7-1-2.8-1c-1.1,0-2,0.3-2.8,1
		c-0.8,0.6-1.4,1.5-1.8,2.6c-0.4,1.1-0.6,2.3-0.6,3.7s0.2,2.6,0.6,3.7c0.4,1.1,1,2,1.8,2.6C258.5,79.4,259.4,79.8,260.5,79.8z"/>
	<path class="st0" d="M272.7,62c-0.2,0-0.3-0.1-0.4-0.2c-0.1-0.1-0.2-0.3-0.2-0.4c0-0.2,0.1-0.3,0.2-0.4s0.3-0.2,0.4-0.2
		s0.3,0.1,0.4,0.2s0.2,0.3,0.2,0.4c0,0.2-0.1,0.3-0.2,0.4C273,61.9,272.9,62,272.7,62z M272.4,80.1V64.8h0.6v15.3H272.4z"/>
	<path class="st0" d="M282.3,80.4c-0.8,0-1.6-0.2-2.3-0.5c-0.7-0.3-1.3-0.8-1.7-1.5c-0.4-0.7-0.6-1.5-0.6-2.4c0-0.5,0.1-1,0.2-1.5
		c0.2-0.5,0.5-0.9,0.9-1.2c0.4-0.4,1-0.7,1.8-1c0.8-0.3,1.7-0.5,2.9-0.6c0.7-0.1,1.4-0.2,2-0.3c0.6-0.1,1.1-0.3,1.5-0.5
		c0.4-0.2,0.6-0.5,0.6-0.9v-0.9c0-1.2-0.4-2.1-1.2-2.8c-0.8-0.7-1.8-1.1-3.2-1.1c-1.1,0-2,0.2-2.8,0.7c-0.8,0.5-1.4,1.1-1.7,2
		l-0.6-0.2c0.2-0.6,0.6-1.2,1.1-1.7s1.1-0.8,1.8-1.1c0.7-0.3,1.4-0.4,2.2-0.4c0.8,0,1.5,0.1,2.1,0.3c0.6,0.2,1.1,0.5,1.6,1
		c0.4,0.4,0.8,0.9,1,1.4c0.2,0.6,0.3,1.2,0.3,1.8v11h-0.6V77h-0.1c-0.3,0.7-0.7,1.3-1.2,1.8c-0.5,0.5-1.1,0.9-1.8,1.2
		C283.8,80.2,283.1,80.4,282.3,80.4z M282.3,79.8c1,0,1.8-0.3,2.6-0.8c0.8-0.5,1.4-1.2,1.9-2.2c0.5-0.9,0.7-2,0.7-3.2v-2.3
		c-0.2,0.1-0.4,0.3-0.7,0.4c-0.3,0.1-0.6,0.2-0.9,0.3c-0.3,0.1-0.7,0.2-1.1,0.2s-0.8,0.1-1.2,0.2c-1.4,0.2-2.4,0.4-3.2,0.7
		c-0.8,0.3-1.3,0.7-1.7,1.2c-0.3,0.5-0.5,1.1-0.5,1.7c0,1.2,0.4,2.1,1.2,2.8C280.2,79.4,281.2,79.8,282.3,79.8z"/>
	<path class="st0" d="M302.2,59.7v20.4h-0.6V59.7H302.2z"/>
	<path class="st0" d="M308,62c-0.2,0-0.3-0.1-0.4-0.2c-0.1-0.1-0.2-0.3-0.2-0.4c0-0.2,0.1-0.3,0.2-0.4s0.3-0.2,0.4-0.2
		s0.3,0.1,0.4,0.2s0.2,0.3,0.2,0.4c0,0.2-0.1,0.3-0.2,0.4C308.3,61.9,308.1,62,308,62z M307.6,80.1V64.8h0.6v15.3H307.6z"/>
	<path class="st0" d="M324.3,64.8l-5.4,15.3h-0.9l-5.4-15.3h0.7l5.2,14.5h0.1l5.2-14.5H324.3z"/>
	<path class="st0" d="M328.4,80.1V64.8h0.6v2.4h0.1c0.4-0.8,0.9-1.4,1.8-1.9c0.8-0.5,1.8-0.7,2.8-0.7c0.1,0,0.1,0,0.2,0s0.1,0,0.2,0
		v0.6c-0.1,0-0.1,0-0.2,0s-0.1,0-0.2,0c-0.9,0-1.7,0.2-2.4,0.6c-0.7,0.4-1.2,0.9-1.7,1.6s-0.6,1.5-0.6,2.4v10.3H328.4z"/>
	<path class="st0" d="M342.8,80.4c-1.3,0-2.5-0.3-3.5-1c-1-0.7-1.8-1.6-2.3-2.8c-0.6-1.2-0.8-2.5-0.8-4s0.3-2.8,0.8-4
		c0.6-1.2,1.3-2.1,2.3-2.8c1-0.7,2-1,3.2-1c0.9,0,1.7,0.2,2.5,0.6c0.8,0.4,1.4,0.9,2,1.6c0.6,0.7,1,1.4,1.3,2.3
		c0.3,0.9,0.5,1.8,0.5,2.8v0.6h-12.2v-0.6h11.6c0-1.2-0.3-2.3-0.8-3.3c-0.5-1-1.2-1.8-2-2.4s-1.8-0.9-2.8-0.9c-1,0-2,0.3-2.8,0.9
		c-0.8,0.6-1.5,1.5-2,2.5c-0.5,1.1-0.8,2.3-0.8,3.6v0.1c0,1.3,0.2,2.6,0.7,3.7s1.1,2,2,2.7s2,1,3.3,1c0.9,0,1.7-0.2,2.4-0.5
		c0.6-0.3,1.2-0.7,1.5-1.1c0.4-0.4,0.7-0.8,0.9-1.1l0.5,0.4c-0.2,0.4-0.6,0.8-1,1.3c-0.5,0.5-1,0.9-1.7,1.2
		C344.6,80.2,343.8,80.4,342.8,80.4z"/>
</g>
</svg>
